{
  "accessors": [
    {
      "name": "_King_George_V_body_1_0_positions",
      "componentType": 5126,
      "count": 553,
      "min": [
        -1.3357000350952148,
        -0.19550000131130219,
        -0.031700000166893005
      ],
      "max": [
        1.3357000350952148,
        0.19550000131130219,
        0.14949999749660492
      ],
      "type": "VEC3",
      "bufferView": 0,
      "byteOffset": 0
    },
    {
      "name": "_King_George_V_body_1_0_normals",
      "componentType": 5126,
      "count": 553,
      "min": [
        -0.9693967700004578,
        -0.9998821020126343,
        -0.9999966025352478
      ],
      "max": [
        0.9825114607810974,
        0.9998821020126343,
        1
      ],
      "type": "VEC3",
      "bufferView": 1,
      "byteOffset": 0
    },
    {
      "name": "_King_George_V_body_1_0_texcoords",
      "componentType": 5126,
      "count": 553,
      "min": [
        0.014100000262260437,
        0.025499999523162842
      ],
      "max": [
        0.9921000003814697,
        0.5414000153541565
      ],
      "type": "VEC2",
      "bufferView": 2,
      "byteOffset": 0
    },
    {
      "name": "_King_George_V_body_1_0_indices",
      "componentType": 5123,
      "count": 1134,
      "min": [
        0
      ],
      "max": [
        552
      ],
      "type": "SCALAR",
      "bufferView": 3,
      "byteOffset": 0
    },
    {
      "name": "_King_George_V_detail_1_0_positions",
      "componentType": 5126,
      "count": 14451,
      "min": [
        -0.7781000137329102,
        -0.18940000236034393,
        -0.012600000016391277
      ],
      "max": [
        1.2454999685287476,
        0.1889999955892563,
        0.5490000247955322
      ],
      "type": "VEC3",
      "bufferView": 0,
      "byteOffset": 6636
    },
    {
      "name": "_King_George_V_detail_1_0_normals",
      "componentType": 5126,
      "count": 14451,
      "min": [
        -1,
        -1,
        -1
      ],
      "max": [
        1,
        1,
        1
      ],
      "type": "VEC3",
      "bufferView": 1,
      "byteOffset": 6636
    },
    {
      "name": "_King_George_V_detail_1_0_texcoords",
      "componentType": 5126,
      "count": 14451,
      "min": [
        0.015699999406933784,
        0.5663999915122986
      ],
      "max": [
        0.9807000160217285,
        0.9767000079154968
      ],
      "type": "VEC2",
      "bufferView": 2,
      "byteOffset": 4424
    },
    {
      "name": "_King_George_V_detail_1_0_indices",
      "componentType": 5123,
      "count": 37830,
      "min": [
        0
      ],
      "max": [
        14450
      ],
      "type": "SCALAR",
      "bufferView": 3,
      "byteOffset": 2268
    }
  ],
  "asset": {
    "generator": "obj2gltf",
    "version": "2.0"
  },
  "buffers": [
    {
      "name": "14083_WWII_ship - UK - King_George_V_Class_Battleship_v1_L1",
      "byteLength": 895256,
      "uri": "data:application/octet-stream;base64,"
    }
  ],
  "bufferViews": [
    {
      "name": "bufferView_0",
      "buffer": 0,
      "byteLength": 180048,
      "byteOffset": 0,
      "byteStride": 12,
      "target": 34962
    },
    {
      "name": "bufferView_1",
      "buffer": 0,
      "byteLength": 180048,
      "byteOffset": 180048,
      "byteStride": 12,
      "target": 34962
    },
    {
      "name": "bufferView_2",
      "buffer": 0,
      "byteLength": 120032,
      "byteOffset": 360096,
      "byteStride": 8,
      "target": 34962
    },
    {
      "name": "bufferView_3",
      "buffer": 0,
      "byteLength": 77928,
      "byteOffset": 480128,
      "target": 34963
    },
    {
      "buffer": 0,
      "byteOffset": 558056,
      "byteLength": 240856
    },
    {
      "buffer": 0,
      "byteOffset": 798912,
      "byteLength": 96344
    }
  ],
  "images": [
    {
      "name": "King_George_V",
      "mimeType": "image/jpeg",
      "bufferView": 4
    },
    {
      "name": "King_George_V_bump",
      "mimeType": "image/jpeg",
      "bufferView": 5
    }
  ],
  "materials": [
    {
      "name": "_King_George_V",
      "pbrMetallicRoughness": {
        "baseColorTexture": {
          "index": 0
        },
        "baseColorFactor": [
          1,
          1,
          1,
          1
        ],
        "metallicFactor": 0,
        "roughnessFactor": 0.94
      },
      "normalTexture": {
        "index": 1
      },
      "emissiveFactor": [
        0,
        0,
        0
      ],
      "alphaMode": "OPAQUE",
      "doubleSided": false
    }
  ],
  "meshes": [
    {
      "name": "_King_George_V_body_1",
      "primitives": [
        {
          "attributes": {
            "POSITION": 0,
            "NORMAL": 1,
            "TEXCOORD_0": 2
          },
          "indices": 3,
          "material": 0,
          "mode": 4
        }
      ]
    },
    {
      "name": "_King_George_V_detail_1",
      "primitives": [
        {
          "attributes": {
            "POSITION": 4,
            "NORMAL": 5,
            "TEXCOORD_0": 6
          },
          "indices": 7,
          "material": 0,
          "mode": 4
        }
      ]
    }
  ],
  "nodes": [
    {
      "name": "_King_George_V_body",
      "mesh": 0,
      "rotation" : [ 0.0, 0.707, 0.707, 0.0 ],
      "scale" : [50, 50, 50]
    },
    {
      "name": "_King_George_V_detail",
      "mesh": 1,
      "rotation" : [ 0.0, 0.707, 0.707, 0.0 ],
      "scale" : [50, 50, 50]
    }
  ],
  "samplers": [
    {
      "magFilter": 9729,
      "minFilter": 9986,
      "wrapS": 10497,
      "wrapT": 10497
    }
  ],
  "scene": 0,
  "scenes": [
    {
      "nodes": [
        0,
        1
      ]
    }
  ],
  "textures": [
    {
      "name": "King_George_V",
      "sampler": 0,
      "source": 0
    },
    {
      "name": "King_George_V_bump",
      "sampler": 0,
      "source": 1
    }
  ]
}
