<?xml version="1.0" standalone="no"?><!DOCTYPE svg PUBLIC "-//W3C//DTD SVG 1.1//EN" "http://www.w3.org/Graphics/SVG/1.1/DTD/svg11.dtd"><svg t="1667901438021" class="icon" viewBox="0 0 1024 1024" version="1.1" xmlns="http://www.w3.org/2000/svg" p-id="1327" xmlns:xlink="http://www.w3.org/1999/xlink" width="200" height="200"><path d="M757.26 678.945C810.725 708.554 842 747.912 842 792c0 96.3-149.093 167-330 167s-330-70.7-330-167c0-43.228 30.083-81.935 81.7-111.348 9.597-5.468 21.81-2.122 27.279 7.475 5.468 9.597 2.122 21.81-7.475 27.279C243.129 738.412 222 765.599 222 792c0 30.229 27.839 61.44 79.366 85.874C356.291 903.918 431.486 919 512 919c80.514 0 155.71-15.082 210.634-41.126C774.16 853.44 802 822.229 802 792c0-26.985-22.094-54.79-64.119-78.063-9.663-5.351-13.158-17.523-7.807-27.185 5.352-9.663 17.523-13.159 27.186-7.807zM512 64c162.372 0 294 104 294 294 1.626 249.821-285.134 464-294 464-8.866 0-294.006-208.34-294.006-464 0-190 131.634-294 294.006-294z m0 168c-60.751 0-110 49.249-110 110s49.249 110 110 110 110-49.249 110-110-49.249-110-110-110z" fill="#222222" p-id="1328"></path></svg>